<svg width="91" height="91" viewBox="0 0 91 91" fill="none" xmlns="http://www.w3.org/2000/svg">
<path fill-rule="evenodd" clip-rule="evenodd" d="M45.5002 83.4167C66.441 83.4167 83.4168 66.4408 83.4168 45.5C83.4168 24.5592 66.441 7.58337 45.5002 7.58337C24.5594 7.58337 7.5835 24.5592 7.5835 45.5C7.5835 66.4408 24.5594 83.4167 45.5002 83.4167Z" stroke="white" stroke-width="3"/>
<path fill-rule="evenodd" clip-rule="evenodd" d="M45.5002 79.625C45.5002 79.625 60.6668 67.2159 60.6668 45.5C60.6668 23.7841 45.5002 11.375 45.5002 11.375C45.5002 11.375 30.3335 23.7841 30.3335 45.5C30.3335 67.2159 45.5002 79.625 45.5002 79.625Z" stroke="white" stroke-width="3"/>
<path d="M9.47933 34.125H81.521" stroke="white" stroke-width="3" stroke-linecap="round"/>
<path d="M9.47933 56.875H81.521" stroke="white" stroke-width="3" stroke-linecap="round"/>
</svg>
