<svg width="24" height="24" viewBox="0 0 24 24" fill="none" xmlns="http://www.w3.org/2000/svg">
<path d="M19 8H22V22H2V8H5" stroke="black" stroke-linejoin="round"/>
<path d="M2 22L9 14" stroke="black"/>
<path fill-rule="evenodd" clip-rule="evenodd" d="M22 22L15 14L22 22Z" stroke="black"/>
<path d="M2 8L12 17L22 8" stroke="black"/>
<path d="M19 2V10.7L12 17L5 10.7V2H19Z" stroke="black" stroke-linecap="round" stroke-linejoin="round"/>
<path d="M8 4.5C7.72386 4.5 7.5 4.72386 7.5 5C7.5 5.27614 7.72386 5.5 8 5.5V4.5ZM16 5.5C16.2761 5.5 16.5 5.27614 16.5 5C16.5 4.72386 16.2761 4.5 16 4.5V5.5ZM8 5.5H16V4.5H8V5.5Z" fill="black"/>
<path d="M8 7.5C7.72386 7.5 7.5 7.72386 7.5 8C7.5 8.27614 7.72386 8.5 8 8.5V7.5ZM16 8.5C16.2761 8.5 16.5 8.27614 16.5 8C16.5 7.72386 16.2761 7.5 16 7.5V8.5ZM8 8.5H16V7.5H8V8.5Z" fill="black"/>
<path d="M8 10.5C7.72386 10.5 7.5 10.7239 7.5 11C7.5 11.2761 7.72386 11.5 8 11.5V10.5ZM16 11.5C16.2761 11.5 16.5 11.2761 16.5 11C16.5 10.7239 16.2761 10.5 16 10.5V11.5ZM8 11.5H16V10.5H8V11.5Z" fill="black"/>
</svg>
